# Blender v2.90.1 OBJ File: 'terrain_models.blend'
# www.blender.org
mtllib lil_bush.mtl
o Cylinder.004
v 0.000000 -0.029301 -0.097475
v 0.076209 -0.029301 -0.060775
v 0.095031 -0.029301 0.021690
v 0.042293 -0.029301 0.087822
v -0.042293 -0.029301 0.087822
v -0.095031 -0.029301 0.021690
v -0.076209 -0.029301 -0.060775
v 0.044339 0.230703 -0.035359
v 0.046880 0.144028 -0.037386
v 0.055991 0.068161 -0.044652
v 0.055289 0.230703 0.012619
v 0.058459 0.144028 0.013343
v 0.069820 0.068161 0.015936
v 0.024606 0.230703 0.051095
v 0.026017 0.144028 0.054024
v 0.031073 0.068161 0.064524
v -0.024606 0.230703 0.051095
v -0.026017 0.144028 0.054024
v -0.031073 0.068161 0.064524
v -0.055289 0.230703 0.012619
v -0.058459 0.144028 0.013343
v -0.069820 0.068161 0.015936
v -0.044339 0.230703 -0.035359
v -0.046880 0.144028 -0.037386
v -0.055991 0.068161 -0.044652
v 0.000000 0.068161 -0.071616
v -0.000000 0.144028 -0.059962
v -0.000000 0.230703 -0.056711
vt 0.937640 0.399638
vt 0.854132 0.033767
vt 0.516017 0.196595
vt 1.000000 0.500000
vt 0.857143 0.541667
vt 0.857143 0.500000
vt 1.000000 0.541667
vt 0.857143 0.583333
vt 1.000000 0.583333
vt 0.857143 0.625000
vt 0.714286 0.500000
vt 0.714286 0.541667
vt 0.714286 0.583333
vt 0.571429 0.500000
vt 0.571429 0.541667
vt 0.714286 0.625000
vt 0.571429 0.583333
vt 0.428571 0.500000
vt 0.428571 0.541667
vt 0.571429 0.625000
vt 0.428571 0.583333
vt 0.285714 0.500000
vt 0.285714 0.583333
vt 0.285714 0.541667
vt 0.285714 0.625000
vt 0.142857 0.500000
vt 0.142857 0.541667
vt 0.142857 0.583333
vt 0.000000 0.541667
vt 0.000000 0.500000
vt 0.142857 0.625000
vt 0.000000 0.583333
vt 0.428571 0.625000
vt 0.562360 0.399638
vt 0.750000 0.490000
vt 0.983983 0.196595
vt 0.645868 0.033767
vt 1.000000 0.625000
vt 0.000000 0.625000
vn 0.0000 -1.0000 0.0000
vn 0.4220 0.2325 -0.8763
vn 0.4298 0.1371 -0.8925
vn 0.4336 0.0338 -0.9005
vn 0.9482 0.2325 -0.2164
vn 0.9657 0.1371 -0.2204
vn 0.9744 0.0338 -0.2224
vn 0.7604 0.2325 0.6064
vn 0.7745 0.1371 0.6176
vn 0.7814 0.0338 0.6231
vn 0.0000 0.2325 0.9726
vn 0.0000 0.1371 0.9906
vn 0.0000 0.0338 0.9994
vn -0.7604 0.2325 0.6064
vn -0.7745 0.1371 0.6176
vn -0.7814 0.0338 0.6231
vn -0.9482 0.2325 -0.2164
vn -0.9657 0.1371 -0.2204
vn -0.9744 0.0338 -0.2224
vn -0.4220 0.2325 -0.8763
vn -0.4298 0.1371 -0.8925
vn -0.4336 0.0338 -0.9005
vn 0.0000 1.0000 0.0000
usemtl Material.001
s off
f 2/1/1 4/2/1 6/3/1
f 1/4/2 10/5/2 2/6/2
f 26/7/3 9/8/3 10/5/3
f 27/9/4 8/10/4 9/8/4
f 10/5/5 3/11/5 2/6/5
f 9/8/6 13/12/6 10/5/6
f 8/10/7 12/13/7 9/8/7
f 13/12/8 4/14/8 3/11/8
f 12/13/9 16/15/9 13/12/9
f 11/16/10 15/17/10 12/13/10
f 16/15/11 5/18/11 4/14/11
f 15/17/12 19/19/12 16/15/12
f 14/20/13 18/21/13 15/17/13
f 19/19/14 6/22/14 5/18/14
f 19/19/15 21/23/15 22/24/15
f 18/21/16 20/25/16 21/23/16
f 22/24/17 7/26/17 6/22/17
f 21/23/18 25/27/18 22/24/18
f 20/25/19 24/28/19 21/23/19
f 7/26/20 26/29/20 1/30/20
f 24/28/21 26/29/21 25/27/21
f 23/31/22 27/32/22 24/28/22
f 23/31/23 17/33/23 11/16/23
f 7/34/1 1/35/1 2/1/1
f 2/1/1 3/36/1 4/2/1
f 4/2/1 5/37/1 6/3/1
f 6/3/1 7/34/1 2/1/1
f 1/4/2 26/7/2 10/5/2
f 26/7/3 27/9/3 9/8/3
f 27/9/4 28/38/4 8/10/4
f 10/5/5 13/12/5 3/11/5
f 9/8/6 12/13/6 13/12/6
f 8/10/7 11/16/7 12/13/7
f 13/12/8 16/15/8 4/14/8
f 12/13/9 15/17/9 16/15/9
f 11/16/10 14/20/10 15/17/10
f 16/15/11 19/19/11 5/18/11
f 15/17/12 18/21/12 19/19/12
f 14/20/13 17/33/13 18/21/13
f 19/19/14 22/24/14 6/22/14
f 19/19/15 18/21/15 21/23/15
f 18/21/16 17/33/16 20/25/16
f 22/24/17 25/27/17 7/26/17
f 21/23/18 24/28/18 25/27/18
f 20/25/19 23/31/19 24/28/19
f 7/26/20 25/27/20 26/29/20
f 24/28/21 27/32/21 26/29/21
f 23/31/22 28/39/22 27/32/22
f 8/10/23 28/39/23 23/31/23
f 23/31/23 20/25/23 17/33/23
f 17/33/23 14/20/23 11/16/23
f 11/16/23 8/10/23 23/31/23
o Icosphere.014
v 0.004521 0.126288 0.004668
v 0.440114 0.469585 0.318374
v -0.161858 0.469585 0.512260
v -0.533901 0.469587 0.004668
v -0.161858 0.469585 -0.502924
v 0.440114 0.469585 -0.309038
v 0.170900 1.025065 0.512260
v -0.431073 1.025065 0.318374
v -0.431073 1.025065 -0.309038
v 0.170900 1.025065 -0.502924
v 0.542943 1.025062 0.004668
v 0.004521 1.368362 0.004668
v -0.093273 0.219037 0.303021
v 0.260555 0.219037 0.189059
v 0.162761 0.420822 0.487415
v 0.516590 0.420823 0.004668
v 0.260555 0.219037 -0.179723
v -0.311955 0.219038 0.004668
v -0.409752 0.420823 0.303022
v -0.093273 0.219037 -0.293685
v -0.409752 0.420823 -0.293686
v 0.162761 0.420822 -0.478079
v 0.577034 0.747325 0.189060
v 0.577034 0.747325 -0.179723
v 0.004521 0.747325 0.601380
v 0.358353 0.747325 0.487418
v -0.567992 0.747325 0.189060
v -0.349311 0.747325 0.487418
v -0.349311 0.747325 -0.478082
v -0.567992 0.747325 -0.179723
v 0.358353 0.747325 -0.478082
v 0.004521 0.747325 -0.592044
v 0.418794 1.073826 0.303022
v -0.153720 1.073827 0.487415
v -0.507548 1.073826 0.004668
v -0.153720 1.073827 -0.478079
v 0.418794 1.073826 -0.293686
v 0.102315 1.275613 0.303021
v 0.320997 1.275611 0.004668
v -0.251513 1.275613 0.189059
v -0.251513 1.275613 -0.179723
v 0.102315 1.275613 -0.293685
vt 0.818181 0.000000
vt 0.772726 0.078731
vt 0.863635 0.078731
vt 0.727272 0.157461
vt 0.681818 0.078731
vt 0.636363 0.157461
vt 0.090909 0.000000
vt 0.045454 0.078731
vt 0.136363 0.078731
vt 0.272727 0.000000
vt 0.227273 0.078731
vt 0.318182 0.078731
vt 0.454545 0.000000
vt 0.409090 0.078731
vt 0.500000 0.078731
vt 0.681818 0.236191
vt 0.909090 0.157461
vt 0.818181 0.157461
vt 0.863635 0.236191
vt 0.181818 0.157461
vt 0.090909 0.157461
vt 0.136363 0.236191
vt 0.363636 0.157461
vt 0.272727 0.157461
vt 0.318182 0.236191
vt 0.545454 0.157461
vt 0.454545 0.157461
vt 0.500000 0.236191
vt 0.772726 0.236191
vt 0.954545 0.236191
vt 0.227273 0.236191
vt 0.409090 0.236191
vt 0.590909 0.236191
vt 0.818181 0.314921
vt 0.727272 0.314921
vt 0.772726 0.393651
vt 1.000000 0.314921
vt 0.909091 0.314921
vt 0.954545 0.393651
vt 0.272727 0.314921
vt 0.181818 0.314921
vt 0.227273 0.393651
vt 0.454545 0.314921
vt 0.363636 0.314921
vt 0.409090 0.393651
vt 0.636363 0.314921
vt 0.545454 0.314921
vt 0.590909 0.393651
vt 0.500000 0.393651
vt 0.545454 0.472382
vt 0.318182 0.393651
vt 0.363636 0.472382
vt 0.136363 0.393651
vt 0.181818 0.472382
vt 0.090909 0.314921
vt 0.863635 0.393651
vt 0.909090 0.472382
vt 0.681818 0.393651
vt 0.727272 0.472382
vt 0.045454 0.236191
vt 0.000000 0.157461
vt 0.590909 0.078731
vt 0.636363 0.000000
vn 0.1052 -0.9393 0.3265
vn 0.7092 -0.6496 0.2739
vn -0.2755 -0.9399 0.2019
vn -0.2755 -0.9399 -0.2019
vn 0.1052 -0.9393 -0.3265
vn 0.9074 -0.3211 0.2711
vn 0.0246 -0.3188 0.9475
vn -0.8919 -0.3210 0.3186
vn -0.5736 -0.3197 -0.7541
vn 0.5335 -0.3196 -0.7831
vn 0.8006 -0.1215 0.5868
vn -0.3043 -0.1209 0.9449
vn -0.9926 -0.1218 0.0000
vn -0.3043 -0.1209 -0.9449
vn 0.8006 -0.1215 -0.5868
vn 0.4130 0.6477 0.6402
vn -0.4762 0.6480 0.5944
vn -0.7092 0.6496 -0.2739
vn 0.0389 0.6468 -0.7617
vn 0.7336 0.6498 -0.1990
vn 0.2755 0.9399 -0.2019
vn 0.5002 0.7845 -0.3666
vn 0.4130 0.6477 -0.6402
vn -0.1052 0.9393 -0.3265
vn -0.1907 0.7830 -0.5921
vn -0.4762 0.6480 -0.5944
vn -0.3406 0.9402 0.0000
vn -0.6190 0.7854 0.0000
vn -0.7092 0.6496 0.2739
vn -0.1052 0.9393 0.3265
vn -0.1907 0.7830 0.5921
vn 0.0389 0.6468 0.7617
vn 0.2755 0.9399 0.2019
vn 0.5002 0.7845 0.3666
vn 0.7336 0.6498 0.1990
vn 0.8919 0.3210 -0.3186
vn 0.7932 0.1815 -0.5813
vn 0.5736 0.3197 -0.7541
vn -0.0246 0.3188 -0.9475
vn -0.3015 0.1806 -0.9362
vn -0.5335 0.3196 -0.7831
vn -0.9074 0.3211 -0.2711
vn -0.9833 0.1820 0.0000
vn -0.9074 0.3211 0.2711
vn -0.5335 0.3196 0.7831
vn -0.3015 0.1806 0.9362
vn -0.0246 0.3188 0.9475
vn 0.5736 0.3197 0.7541
vn 0.7932 0.1815 0.5813
vn 0.8919 0.3210 0.3186
vn 0.3043 0.1209 -0.9449
vn 0.3015 -0.1806 -0.9362
vn 0.0246 -0.3188 -0.9475
vn -0.8006 0.1215 -0.5868
vn -0.7932 -0.1815 -0.5813
vn -0.8919 -0.3210 -0.3186
vn -0.8006 0.1215 0.5868
vn -0.7932 -0.1815 0.5813
vn -0.5736 -0.3197 0.7541
vn 0.3043 0.1209 0.9449
vn 0.3015 -0.1806 0.9362
vn 0.5335 -0.3196 0.7831
vn 0.9926 0.1218 0.0000
vn 0.9833 -0.1820 0.0000
vn 0.9074 -0.3211 -0.2711
vn 0.4762 -0.6480 -0.5944
vn 0.1907 -0.7830 -0.5921
vn -0.0389 -0.6468 -0.7617
vn -0.4130 -0.6477 -0.6402
vn -0.5002 -0.7845 -0.3666
vn -0.7336 -0.6498 -0.1990
vn -0.7336 -0.6498 0.1990
vn -0.5002 -0.7845 0.3666
vn -0.4130 -0.6477 0.6402
vn 0.7092 -0.6496 -0.2739
vn 0.6190 -0.7854 0.0000
vn 0.3406 -0.9402 0.0000
vn -0.0389 -0.6468 0.7617
vn 0.1907 -0.7830 0.5921
vn 0.4762 -0.6480 0.5944
usemtl Material.004
s off
f 29/40/24 42/41/24 41/42/24
f 30/43/25 42/44/25 44/45/25
f 29/46/26 41/47/26 46/48/26
f 29/49/27 46/50/27 48/51/27
f 29/52/28 48/53/28 45/54/28
f 30/43/29 44/45/29 51/55/29
f 31/56/30 43/57/30 53/58/30
f 32/59/31 47/60/31 55/61/31
f 33/62/32 49/63/32 57/64/32
f 34/65/33 50/66/33 59/67/33
f 30/43/34 51/55/34 54/68/34
f 31/56/35 53/58/35 56/69/35
f 32/59/36 55/61/36 58/70/36
f 33/62/37 57/64/37 60/71/37
f 34/65/38 59/67/38 52/72/38
f 35/73/39 61/74/39 66/75/39
f 36/76/40 62/77/40 68/78/40
f 37/79/41 63/80/41 69/81/41
f 38/82/42 64/83/42 70/84/42
f 39/85/43 65/86/43 67/87/43
f 67/87/44 70/88/44 40/89/44
f 67/87/45 65/86/45 70/88/45
f 65/86/46 38/82/46 70/88/46
f 70/84/47 69/90/47 40/91/47
f 70/84/48 64/83/48 69/90/48
f 64/83/49 37/79/49 69/90/49
f 69/81/50 68/92/50 40/93/50
f 69/81/51 63/80/51 68/92/51
f 63/80/52 36/94/52 68/92/52
f 68/78/53 66/95/53 40/96/53
f 68/78/54 62/77/54 66/95/54
f 62/77/55 35/73/55 66/95/55
f 66/75/56 67/97/56 40/98/56
f 66/75/57 61/74/57 67/97/57
f 61/74/58 39/85/58 67/97/58
f 52/72/59 65/86/59 39/85/59
f 52/72/60 59/67/60 65/86/60
f 59/67/61 38/82/61 65/86/61
f 60/71/62 64/83/62 38/82/62
f 60/71/63 57/64/63 64/83/63
f 57/64/64 37/79/64 64/83/64
f 58/70/65 63/80/65 37/79/65
f 58/70/66 55/61/66 63/80/66
f 55/61/67 36/94/67 63/80/67
f 56/69/68 62/77/68 36/76/68
f 56/69/69 53/58/69 62/77/69
f 53/58/70 35/73/70 62/77/70
f 54/68/71 61/74/71 35/73/71
f 54/68/72 51/55/72 61/74/72
f 51/55/73 39/85/73 61/74/73
f 59/67/74 60/71/74 38/82/74
f 59/67/75 50/66/75 60/71/75
f 50/66/76 33/62/76 60/71/76
f 57/64/77 58/70/77 37/79/77
f 57/64/78 49/63/78 58/70/78
f 49/63/79 32/59/79 58/70/79
f 55/61/80 56/99/80 36/94/80
f 55/61/81 47/60/81 56/99/81
f 47/60/82 31/100/82 56/99/82
f 53/58/83 54/68/83 35/73/83
f 53/58/84 43/57/84 54/68/84
f 43/57/85 30/43/85 54/68/85
f 51/55/86 52/72/86 39/85/86
f 51/55/87 44/45/87 52/72/87
f 44/45/88 34/65/88 52/72/88
f 45/54/89 50/66/89 34/65/89
f 45/54/90 48/53/90 50/66/90
f 48/53/91 33/62/91 50/66/91
f 48/51/92 49/63/92 33/62/92
f 48/51/93 46/50/93 49/63/93
f 46/50/94 32/59/94 49/63/94
f 46/48/95 47/60/95 32/59/95
f 46/48/96 41/47/96 47/60/96
f 41/47/97 31/100/97 47/60/97
f 44/45/98 45/101/98 34/65/98
f 44/45/99 42/44/99 45/101/99
f 42/44/100 29/102/100 45/101/100
f 41/42/101 43/57/101 31/56/101
f 41/42/102 42/41/102 43/57/102
f 42/41/103 30/43/103 43/57/103
